<?xml version="1.0"?>
<svg width="1300" height="1300" xmlns="http://www.w3.org/2000/svg" xmlns:svg="http://www.w3.org/2000/svg" enable-background="new 0 0 1300 1300" version="1.1" xml:space="preserve">
 <style type="text/css">.st0{fill:#0973B9;}
	.st1{fill:#FFFFFF;}
	.st2{fill:url(#SVGID_1_);}
	.st3{fill:url(#SVGID_00000065766492492859298570000007719697872325452940_);}
	.st4{fill:url(#SVGID_00000029011157846694792870000007620117589031531432_);}
	.st5{font-family:&#x27;Offside-Regular&#x27;;}
	.st6{font-size:350px;}</style>
 <g class="layer">
  <title>Layer 1</title>
  <circle class="st0" cx="649" cy="649.61" id="svg_1" r="595.14"/>
  <path class="st1" d="m984.81,254.04c-189.08,-160.64 -471.98,-165.7 -667.53,-0.09c-199.28,168.76 -238.68,456.19 -102.38,670.53c-24.37,26.07 -25.92,66.81 -2.3,94.71c23.62,27.9 64.07,33.07 93.79,13.33c188.97,169.74 478.96,178.21 678.24,9.45c203.4,-172.26 240.26,-468.15 93.69,-683.76c19.84,-26.04 19.71,-63.23 -2.32,-89.24c-22.94,-27.11 -61.74,-32.73 -91.19,-14.93zm-753.95,749.68c-16.93,-20 -14.45,-49.94 5.54,-66.87c20,-16.93 49.94,-14.45 66.87,5.54c16.93,20 14.45,49.94 -5.54,66.87c-20,16.94 -49.94,14.46 -66.87,-5.54zm733.67,14.5c-186.99,158.35 -458.96,150.66 -636.57,-8.15c15.48,-25.51 13.83,-59.05 -6.51,-83.07c-20.34,-24.02 -53.15,-31.17 -80.86,-20.11c-127.39,-201.33 -90.2,-470.86 96.79,-629.22c182.9,-154.9 447.13,-150.92 624.81,-2.04c-17.11,25.77 -16.02,60.71 4.97,85.5c21.92,25.89 58.32,32.19 87.21,17.19c135.62,202.4 100.48,478.73 -89.84,639.9zm88.54,-667.06c-19.06,16.14 -47.13,14.6 -64.38,-2.89c-0.38,-0.38 -0.74,-0.79 -1.11,-1.18c-0.46,-0.5 -0.94,-0.95 -1.38,-1.47c-0.04,-0.05 -0.08,-0.11 -0.12,-0.16c-0.05,-0.06 -0.12,-0.12 -0.17,-0.18c-11.44,-13.51 -13.84,-31.6 -7.89,-47.03c0.29,-0.78 0.64,-1.54 0.97,-2.31c0.13,-0.29 0.25,-0.58 0.38,-0.86c2.81,-6.09 6.91,-11.7 12.37,-16.32c20,-16.93 49.94,-14.45 66.87,5.54c16.94,19.98 14.46,49.92 -5.54,66.86z" id="svg_2"/>
  <g id="svg_3" transform="translate(2.5 -7.5) translate(0 20) matrix(1 0 0 1 -377.5 -137.5)">
   <linearGradient gradientTransform="matrix(0.9791 -0.2034 0.2034 0.9791 -138.5346 227.7878)" gradientUnits="userSpaceOnUse" id="SVGID_1_" x1="848.6" x2="848.6" y1="964.6" y2="568">
    <stop offset="0" stop-color="#FFFFFF"/>
    <stop offset="0.03" stop-color="#FFFFFF"/>
    <stop offset="0.3" stop-color="#FFFFFF"/>
    <stop offset="0.64" stop-color="#FFFFFF"/>
    <stop offset="0.68" stop-color="#F7F7F7"/>
    <stop offset="0.74" stop-color="#E1E1E1"/>
    <stop offset="0.82" stop-color="#BDBDBE"/>
    <stop offset="0.84" stop-color="#B4B4B5"/>
    <stop offset="0.9" stop-color="#B8B7B8"/>
    <stop offset="0.95" stop-color="#C3C2C3"/>
    <stop offset="1" stop-color="#D5D4D4"/>
   </linearGradient>
   <path class="st2" d="m714.98,1035.64l93.76,-19.48c0,0 69.9,-11.37 94.03,-85.77l82.43,-336.94c0,0 -68.54,-15.46 -116.83,9.42s-33.96,8.05 -62.41,42.66c0.02,0.01 -18.24,0.83 -90.98,390.11z" id="svg_4"/>
   <linearGradient id="SVGID_00000144309935236531246440000015771362431346084790_" x1="-0.14" x2="1.15" y1="0.6" y2="0.43">
    <stop offset="0" stop-color="#FFFFFF"/>
    <stop offset="0.03" stop-color="#FFFFFF"/>
    <stop offset="0.3" stop-color="#FFFFFF"/>
    <stop offset="0.64" stop-color="#FFFFFF"/>
    <stop offset="1" stop-color="#FFFFFF"/>
   </linearGradient>
   <path d="m1333.02,502.21l-93.76,19.48c0,0 -69.9,11.37 -94.03,85.77l-82.43,336.94c0,0 68.54,15.46 116.83,-9.42c48.28,-24.88 30.83,-10.19 59.28,-44.8c-0.02,-0.01 11.58,-5.72 94.11,-387.97z" fill="url(#SVGID_00000144309935236531246440000015771362431346084790_)" id="svg_5"/>
   <linearGradient id="SVGID_00000035496830475341080280000005361016610012612525_" x1="0.4" x2="0.59" y1="-0.02" y2="1.04">
    <stop offset="0" stop-color="#FFFFFF"/>
    <stop offset="0.03" stop-color="#FFFFFF"/>
    <stop offset="0.3" stop-color="#FFFFFF"/>
    <stop offset="0.64" stop-color="#FFFFFF"/>
    <stop offset="0.68" stop-color="#F7F7F7"/>
    <stop offset="0.74" stop-color="#E1E1E1"/>
    <stop offset="0.82" stop-color="#BDBDBE"/>
    <stop offset="0.84" stop-color="#B4B4B5"/>
    <stop offset="0.9" stop-color="#B8B7B8"/>
    <stop offset="0.95" stop-color="#C3C2C3"/>
    <stop offset="1" stop-color="#D5D4D4"/>
   </linearGradient>
   <path d="m805.98,645.54c0,0 36.59,-38.29 92.51,68.88l111.51,193.7c0,0 32.7,52.55 114.73,42.42c0,0 79.62,-2.71 114.16,-60.36c0,0 -31.95,22.48 -85.24,-62.47l-103.47,-188.35c0,0 -30.2,-73.9 -122.09,-58.77c-91.88,15.11 -122.11,64.95 -122.11,64.95z" fill="url(#SVGID_00000035496830475341080280000005361016610012612525_)" id="svg_6"/>
  </g>
 </g>
</svg>