<?xml version="1.0" encoding="utf-8"?>
<!-- Generator: Adobe Illustrator 27.0.0, SVG Export Plug-In . SVG Version: 6.00 Build 0)  -->
<svg version="1.1" id="Layer_1" xmlns="http://www.w3.org/2000/svg" xmlns:xlink="http://www.w3.org/1999/xlink" x="0px" y="0px"
	 viewBox="0 0 2048 2048" style="enable-background:new 0 0 2048 2048;" xml:space="preserve">
<style type="text/css">
	.st0{fill:#0973B9;}
	.st1{fill:#FFFFFF;}
	.st2{fill:url(#SVGID_1_);}
	.st3{fill:url(#SVGID_00000065766492492859298570000007719697872325452940_);}
	.st4{fill:url(#SVGID_00000029011157846694792870000007620117589031531432_);}
	.st5{font-family:'Offside-Regular';}
	.st6{font-size:350px;}
</style>
<circle class="st0" cx="1024" cy="774.61" r="595.14"/>
<path class="st1" d="M1359.81,379.04c-189.08-160.64-471.98-165.7-667.53-0.09c-199.28,168.76-238.68,456.19-102.38,670.53
	c-24.37,26.07-25.92,66.81-2.3,94.71c23.62,27.9,64.07,33.07,93.79,13.33c188.97,169.74,478.96,178.21,678.24,9.45
	c203.4-172.26,240.26-468.15,93.69-683.76c19.84-26.04,19.71-63.23-2.32-89.24C1428.06,366.86,1389.26,361.24,1359.81,379.04z
	 M605.86,1128.72c-16.93-20-14.45-49.94,5.54-66.87c20-16.93,49.94-14.45,66.87,5.54c16.93,20,14.45,49.94-5.54,66.87
	C652.73,1151.2,622.79,1148.72,605.86,1128.72z M1339.53,1143.22c-186.99,158.35-458.96,150.66-636.57-8.15
	c15.48-25.51,13.83-59.05-6.51-83.07c-20.34-24.02-53.15-31.17-80.86-20.11c-127.39-201.33-90.2-470.86,96.79-629.22
	c182.9-154.9,447.13-150.92,624.81-2.04c-17.11,25.77-16.02,60.71,4.97,85.5c21.92,25.89,58.32,32.19,87.21,17.19
	C1564.99,705.72,1529.85,982.05,1339.53,1143.22z M1428.07,476.16c-19.06,16.14-47.13,14.6-64.38-2.89
	c-0.38-0.38-0.74-0.79-1.11-1.18c-0.46-0.5-0.94-0.95-1.38-1.47c-0.04-0.05-0.08-0.11-0.12-0.16c-0.05-0.06-0.12-0.12-0.17-0.18
	c-11.44-13.51-13.84-31.6-7.89-47.03c0.29-0.78,0.64-1.54,0.97-2.31c0.13-0.29,0.25-0.58,0.38-0.86c2.81-6.09,6.91-11.7,12.37-16.32
	c20-16.93,49.94-14.45,66.87,5.54C1450.55,429.28,1448.07,459.22,1428.07,476.16z"/>
<g>
	
		<linearGradient id="SVGID_1_" gradientUnits="userSpaceOnUse" x1="848.6024" y1="964.6035" x2="848.6024" y2="568.0006" gradientTransform="matrix(0.9791 -0.2034 0.2034 0.9791 -138.5346 227.7878)">
		<stop  offset="0" style="stop-color:#FFFFFF"/>
		<stop  offset="0.0328" style="stop-color:#FFFFFF"/>
		<stop  offset="0.3028" style="stop-color:#FFFFFF"/>
		<stop  offset="0.6402" style="stop-color:#FFFFFF"/>
		<stop  offset="0.6803" style="stop-color:#F7F7F7"/>
		<stop  offset="0.7427" style="stop-color:#E1E1E1"/>
		<stop  offset="0.8193" style="stop-color:#BDBDBE"/>
		<stop  offset="0.8365" style="stop-color:#B4B4B5"/>
		<stop  offset="0.8953" style="stop-color:#B8B7B8"/>
		<stop  offset="0.9488" style="stop-color:#C3C2C3"/>
		<stop  offset="1" style="stop-color:#D5D4D4"/>
	</linearGradient>
	<path class="st2" d="M714.98,1035.64l93.76-19.48c0,0,69.9-11.37,94.03-85.77l82.43-336.94c0,0-68.54-15.46-116.83,9.42
		s-33.96,8.05-62.41,42.66C805.98,645.54,787.72,646.36,714.98,1035.64z"/>
	
		<linearGradient id="SVGID_00000144309935236531246440000015771362431346084790_" gradientUnits="userSpaceOnUse" x1="1030.4348" y1="766.302" x2="1384.9668" y2="766.302" gradientTransform="matrix(0.9791 -0.2034 0.2034 0.9791 -138.5346 227.7878)">
		<stop  offset="0" style="stop-color:#FFFFFF"/>
		<stop  offset="0.0328" style="stop-color:#FFFFFF"/>
		<stop  offset="0.3028" style="stop-color:#FFFFFF"/>
		<stop  offset="0.6402" style="stop-color:#FFFFFF"/>
		<stop  offset="1" style="stop-color:#FFFFFF"/>
	</linearGradient>
	<path style="fill:url(#SVGID_00000144309935236531246440000015771362431346084790_);" d="M1333.02,502.21l-93.76,19.48
		c0,0-69.9,11.37-94.03,85.77l-82.43,336.94c0,0,68.54,15.46,116.83-9.42c48.28-24.88,30.83-10.19,59.28-44.8
		C1238.89,890.17,1250.49,884.46,1333.02,502.21z"/>
	
		<linearGradient id="SVGID_00000035496830475341080280000005361016610012612525_" gradientUnits="userSpaceOnUse" x1="1026.8376" y1="562.1303" x2="1026.8376" y2="966.3018" gradientTransform="matrix(0.9791 -0.2034 0.2034 0.9791 -138.5346 227.7878)">
		<stop  offset="0" style="stop-color:#FFFFFF"/>
		<stop  offset="0.0328" style="stop-color:#FFFFFF"/>
		<stop  offset="0.3028" style="stop-color:#FFFFFF"/>
		<stop  offset="0.6402" style="stop-color:#FFFFFF"/>
		<stop  offset="0.6803" style="stop-color:#F7F7F7"/>
		<stop  offset="0.7427" style="stop-color:#E1E1E1"/>
		<stop  offset="0.8193" style="stop-color:#BDBDBE"/>
		<stop  offset="0.8365" style="stop-color:#B4B4B5"/>
		<stop  offset="0.8953" style="stop-color:#B8B7B8"/>
		<stop  offset="0.9488" style="stop-color:#C3C2C3"/>
		<stop  offset="1" style="stop-color:#D5D4D4"/>
	</linearGradient>
	<path style="fill:url(#SVGID_00000035496830475341080280000005361016610012612525_);" d="M805.98,645.54
		c0,0,36.59-38.29,92.51,68.88L1010,908.12c0,0,32.7,52.55,114.73,42.42c0,0,79.62-2.71,114.16-60.36c0,0-31.95,22.48-85.24-62.47
		l-103.47-188.35c0,0-30.2-73.9-122.09-58.77C836.21,595.7,805.98,645.54,805.98,645.54z"/>
</g>
</svg>
